{
	"asset":{
		"generator":"Khronos glTF Blender I/O v3.6.28",
		"version":"2.0"
	},
	"extensionsUsed":[
		"KHR_materials_emissive_strength"
	],
	"scene":0,
	"scenes":[
		{
			"name":"Scene",
			"nodes":[
				0,
				1,
				2,
				3
			]
		}
	],
	"nodes":[
		{
			"mesh":0,
			"name":"\u5e73\u9762.008",
			"scale":[
				20,
				10,
				20
			],
			"translation":[
				0,
				0.09999999403953552,
				0
			]
		},
		{
			"mesh":1,
			"name":"\u5e73\u9762.011",
			"scale":[
				20,
				10,
				20
			]
		},
		{
			"mesh":2,
			"name":"\u5e73\u9762.012",
			"scale":[
				20,
				10,
				20
			],
			"translation":[
				0,
				0.09999999403953552,
				-280
			]
		},
		{
			"mesh":3,
			"name":"\u5e73\u9762.013",
			"scale":[
				20,
				10,
				20
			],
			"translation":[
				0,
				0,
				-280
			]
		}
	],
	"materials":[
		{
			"doubleSided":true,
			"emissiveFactor":[
				1,
				1,
				1
			],
			"extensions":{
				"KHR_materials_emissive_strength":{
					"emissiveStrength":10
				}
			},
			"name":"wire",
			"pbrMetallicRoughness":{
				"baseColorFactor":[
					0.800000011920929,
					0.800000011920929,
					0.800000011920929,
					1
				],
				"metallicFactor":0,
				"roughnessFactor":0.5
			}
		},
		{
			"doubleSided":true,
			"name":"Ground",
			"pbrMetallicRoughness":{
				"baseColorFactor":[
					0.019638199359178543,
					0.019638199359178543,
					0.019638199359178543,
					1
				],
				"metallicFactor":0
			}
		}
	],
	"meshes":[
		{
			"name":"\u5e73\u9762",
			"primitives":[
				{
					"attributes":{
						"POSITION":0,
						"NORMAL":1,
						"TEXCOORD_0":2
					},
					"indices":3,
					"material":0
				}
			]
		},
		{
			"name":"\u5e73\u9762.009",
			"primitives":[
				{
					"attributes":{
						"POSITION":4,
						"NORMAL":5,
						"TEXCOORD_0":6
					},
					"indices":7,
					"material":1
				}
			]
		},
		{
			"name":"\u5e73\u9762.012",
			"primitives":[
				{
					"attributes":{
						"POSITION":8,
						"NORMAL":9,
						"TEXCOORD_0":10
					},
					"indices":3,
					"material":0
				}
			]
		},
		{
			"name":"\u5e73\u9762.013",
			"primitives":[
				{
					"attributes":{
						"POSITION":11,
						"NORMAL":12,
						"TEXCOORD_0":13
					},
					"indices":7,
					"material":1
				}
			]
		}
	],
	"accessors":[
		{
			"bufferView":0,
			"componentType":5126,
			"count":2352,
			"max":[
				3,
				0.019999999552965164,
				1
			],
			"min":[
				-3,
				-0.019999999552965164,
				-13
			],
			"type":"VEC3"
		},
		{
			"bufferView":1,
			"componentType":5126,
			"count":2352,
			"type":"VEC3"
		},
		{
			"bufferView":2,
			"componentType":5126,
			"count":2352,
			"type":"VEC2"
		},
		{
			"bufferView":3,
			"componentType":5123,
			"count":4032,
			"type":"SCALAR"
		},
		{
			"bufferView":4,
			"componentType":5126,
			"count":189,
			"max":[
				3,
				0,
				1
			],
			"min":[
				-3,
				0,
				-13
			],
			"type":"VEC3"
		},
		{
			"bufferView":5,
			"componentType":5126,
			"count":189,
			"type":"VEC3"
		},
		{
			"bufferView":6,
			"componentType":5126,
			"count":189,
			"type":"VEC2"
		},
		{
			"bufferView":7,
			"componentType":5123,
			"count":504,
			"type":"SCALAR"
		},
		{
			"bufferView":8,
			"componentType":5126,
			"count":2352,
			"max":[
				3,
				0.019999999552965164,
				1
			],
			"min":[
				-3,
				-0.019999999552965164,
				-13
			],
			"type":"VEC3"
		},
		{
			"bufferView":9,
			"componentType":5126,
			"count":2352,
			"type":"VEC3"
		},
		{
			"bufferView":10,
			"componentType":5126,
			"count":2352,
			"type":"VEC2"
		},
		{
			"bufferView":11,
			"componentType":5126,
			"count":189,
			"max":[
				3,
				0,
				1
			],
			"min":[
				-3,
				0,
				-13
			],
			"type":"VEC3"
		},
		{
			"bufferView":12,
			"componentType":5126,
			"count":189,
			"type":"VEC3"
		},
		{
			"bufferView":13,
			"componentType":5126,
			"count":189,
			"type":"VEC2"
		}
	],
	"bufferViews":[
		{
			"buffer":0,
			"byteLength":28224,
			"byteOffset":0,
			"target":34962
		},
		{
			"buffer":0,
			"byteLength":28224,
			"byteOffset":28224,
			"target":34962
		},
		{
			"buffer":0,
			"byteLength":18816,
			"byteOffset":56448,
			"target":34962
		},
		{
			"buffer":0,
			"byteLength":8064,
			"byteOffset":75264,
			"target":34963
		},
		{
			"buffer":0,
			"byteLength":2268,
			"byteOffset":83328,
			"target":34962
		},
		{
			"buffer":0,
			"byteLength":2268,
			"byteOffset":85596,
			"target":34962
		},
		{
			"buffer":0,
			"byteLength":1512,
			"byteOffset":87864,
			"target":34962
		},
		{
			"buffer":0,
			"byteLength":1008,
			"byteOffset":89376,
			"target":34963
		},
		{
			"buffer":0,
			"byteLength":28224,
			"byteOffset":90384,
			"target":34962
		},
		{
			"buffer":0,
			"byteLength":28224,
			"byteOffset":118608,
			"target":34962
		},
		{
			"buffer":0,
			"byteLength":18816,
			"byteOffset":146832,
			"target":34962
		},
		{
			"buffer":0,
			"byteLength":2268,
			"byteOffset":165648,
			"target":34962
		},
		{
			"buffer":0,
			"byteLength":2268,
			"byteOffset":167916,
			"target":34962
		},
		{
			"buffer":0,
			"byteLength":1512,
			"byteOffset":170184,
			"target":34962
		}
	],
	"buffers":[
		{
			"byteLength":171696,
			"uri":"Ground_2.bin"
		}
	]
}
