{
	"asset":{
		"generator":"Khronos glTF Blender I/O v3.6.28",
		"version":"2.0"
	},
	"extensionsUsed":[
		"KHR_materials_emissive_strength"
	],
	"scene":0,
	"scenes":[
		{
			"name":"Scene",
			"nodes":[
				0
			]
		}
	],
	"nodes":[
		{
			"mesh":0,
			"name":"\u5e73\u9762.007",
			"scale":[
				10,
				10,
				10
			],
			"translation":[
				1.52587890625e-05,
				0.12403827160596848,
				0
			]
		}
	],
	"materials":[
		{
			"doubleSided":true,
			"name":"Ground",
			"pbrMetallicRoughness":{
				"baseColorFactor":[
					0.019638199359178543,
					0.019638199359178543,
					0.019638199359178543,
					1
				],
				"metallicFactor":0
			}
		},
		{
			"doubleSided":true,
			"emissiveFactor":[
				1,
				1,
				1
			],
			"extensions":{
				"KHR_materials_emissive_strength":{
					"emissiveStrength":10
				}
			},
			"name":"wire",
			"pbrMetallicRoughness":{
				"baseColorFactor":[
					0.800000011920929,
					0.800000011920929,
					0.800000011920929,
					1
				],
				"metallicFactor":0,
				"roughnessFactor":0.5
			}
		}
	],
	"meshes":[
		{
			"name":"\u5e73\u9762.008",
			"primitives":[
				{
					"attributes":{
						"POSITION":0,
						"NORMAL":1,
						"TEXCOORD_0":2
					},
					"indices":3,
					"material":0
				},
				{
					"attributes":{
						"POSITION":4,
						"NORMAL":5,
						"TEXCOORD_0":6
					},
					"indices":7,
					"material":1
				}
			]
		}
	],
	"accessors":[
		{
			"bufferView":0,
			"componentType":5126,
			"count":756,
			"max":[
				2.9999985694885254,
				-0.012403827160596848,
				1
			],
			"min":[
				-3.0000014305114746,
				-0.012403827160596848,
				-13
			],
			"type":"VEC3"
		},
		{
			"bufferView":1,
			"componentType":5126,
			"count":756,
			"type":"VEC3"
		},
		{
			"bufferView":2,
			"componentType":5126,
			"count":756,
			"type":"VEC2"
		},
		{
			"bufferView":3,
			"componentType":5123,
			"count":3150,
			"type":"SCALAR"
		},
		{
			"bufferView":4,
			"componentType":5126,
			"count":13440,
			"max":[
				2.9999985694885254,
				0.017596174031496048,
				1
			],
			"min":[
				-3.0000014305114746,
				-0.012403826229274273,
				-13
			],
			"type":"VEC3"
		},
		{
			"bufferView":5,
			"componentType":5126,
			"count":13440,
			"type":"VEC3"
		},
		{
			"bufferView":6,
			"componentType":5126,
			"count":13440,
			"type":"VEC2"
		},
		{
			"bufferView":7,
			"componentType":5123,
			"count":25200,
			"type":"SCALAR"
		}
	],
	"bufferViews":[
		{
			"buffer":0,
			"byteLength":9072,
			"byteOffset":0,
			"target":34962
		},
		{
			"buffer":0,
			"byteLength":9072,
			"byteOffset":9072,
			"target":34962
		},
		{
			"buffer":0,
			"byteLength":6048,
			"byteOffset":18144,
			"target":34962
		},
		{
			"buffer":0,
			"byteLength":6300,
			"byteOffset":24192,
			"target":34963
		},
		{
			"buffer":0,
			"byteLength":161280,
			"byteOffset":30492,
			"target":34962
		},
		{
			"buffer":0,
			"byteLength":161280,
			"byteOffset":191772,
			"target":34962
		},
		{
			"buffer":0,
			"byteLength":107520,
			"byteOffset":353052,
			"target":34962
		},
		{
			"buffer":0,
			"byteLength":50400,
			"byteOffset":460572,
			"target":34963
		}
	],
	"buffers":[
		{
			"byteLength":510972,
			"uri":"Ground_Long.bin"
		}
	]
}
