{
	"asset":{
		"generator":"Khronos glTF Blender I/O v3.6.28",
		"version":"2.0"
	},
	"extensionsUsed":[
		"KHR_materials_emissive_strength"
	],
	"scene":0,
	"scenes":[
		{
			"name":"Scene",
			"nodes":[
				0,
				1
			]
		}
	],
	"nodes":[
		{
			"mesh":0,
			"name":"\u5e73\u9762.007",
			"scale":[
				10,
				10,
				10
			]
		},
		{
			"mesh":1,
			"name":"\u5e73\u9762.008",
			"scale":[
				10,
				10,
				10
			]
		}
	],
	"materials":[
		{
			"doubleSided":true,
			"name":"Ground",
			"pbrMetallicRoughness":{
				"baseColorFactor":[
					0.019638199359178543,
					0.019638199359178543,
					0.019638199359178543,
					1
				],
				"metallicFactor":0
			}
		},
		{
			"doubleSided":true,
			"emissiveFactor":[
				1,
				1,
				1
			],
			"extensions":{
				"KHR_materials_emissive_strength":{
					"emissiveStrength":10
				}
			},
			"name":"wire",
			"pbrMetallicRoughness":{
				"baseColorFactor":[
					0.800000011920929,
					0.800000011920929,
					0.800000011920929,
					1
				],
				"metallicFactor":0,
				"roughnessFactor":0.5
			}
		}
	],
	"meshes":[
		{
			"name":"\u5e73\u9762.008",
			"primitives":[
				{
					"attributes":{
						"POSITION":0,
						"NORMAL":1,
						"TEXCOORD_0":2
					},
					"indices":3,
					"material":0
				}
			]
		},
		{
			"name":"\u5e73\u9762.009",
			"primitives":[
				{
					"attributes":{
						"POSITION":4,
						"NORMAL":5,
						"TEXCOORD_0":6
					},
					"indices":7,
					"material":1
				}
			]
		}
	],
	"accessors":[
		{
			"bufferView":0,
			"componentType":5126,
			"count":36,
			"max":[
				1,
				0,
				1
			],
			"min":[
				-1,
				0,
				-1
			],
			"type":"VEC3"
		},
		{
			"bufferView":1,
			"componentType":5126,
			"count":36,
			"type":"VEC3"
		},
		{
			"bufferView":2,
			"componentType":5126,
			"count":36,
			"type":"VEC2"
		},
		{
			"bufferView":3,
			"componentType":5123,
			"count":150,
			"type":"SCALAR"
		},
		{
			"bufferView":4,
			"componentType":5126,
			"count":640,
			"max":[
				1,
				0.014999999664723873,
				1
			],
			"min":[
				-1,
				-0.014999999664723873,
				-1
			],
			"type":"VEC3"
		},
		{
			"bufferView":5,
			"componentType":5126,
			"count":640,
			"type":"VEC3"
		},
		{
			"bufferView":6,
			"componentType":5126,
			"count":640,
			"type":"VEC2"
		},
		{
			"bufferView":7,
			"componentType":5123,
			"count":1200,
			"type":"SCALAR"
		}
	],
	"bufferViews":[
		{
			"buffer":0,
			"byteLength":432,
			"byteOffset":0,
			"target":34962
		},
		{
			"buffer":0,
			"byteLength":432,
			"byteOffset":432,
			"target":34962
		},
		{
			"buffer":0,
			"byteLength":288,
			"byteOffset":864,
			"target":34962
		},
		{
			"buffer":0,
			"byteLength":300,
			"byteOffset":1152,
			"target":34963
		},
		{
			"buffer":0,
			"byteLength":7680,
			"byteOffset":1452,
			"target":34962
		},
		{
			"buffer":0,
			"byteLength":7680,
			"byteOffset":9132,
			"target":34962
		},
		{
			"buffer":0,
			"byteLength":5120,
			"byteOffset":16812,
			"target":34962
		},
		{
			"buffer":0,
			"byteLength":2400,
			"byteOffset":21932,
			"target":34963
		}
	],
	"buffers":[
		{
			"byteLength":24332,
			"uri":"Ground.bin"
		}
	]
}
